<svg xmlns="http://www.w3.org/2000/svg" width="534" height="40" viewBox="0 0 534 40">
<path fill="white" d="M184.594,40 C172.581,40 163.529,31.989 163.529,20 C163.529,8.18777551 172.127791,0.165014994 184.218939,0.00251511488 L198.86,0 C209.339,0 217.242,5.86 219.324,15.001 L206.097,15.006 C204.616,12.886 202.172,11.42 199.155,11.33 L184.594,11.326 C179.383,11.326 175.817,15.028 175.817,20 C175.817,25.1002679 179.25678,28.709257 184.316424,28.8365231 L198.86,28.839 C201.92069,28.839 204.419249,27.3735446 205.961442,25.2338022 L206.123,25.001 L219.321,25.006 C217.263,34.031 209.528,39.856 199.244,39.997 L184.594,40 Z M28.47,0 C38.6446216,0 46.4155489,5.48373174 48.7837268,14.1711837 L48.878,14.53 L35.328,14.53 C34.0059643,12.7721071 31.7140982,11.4252066 28.7976075,11.3312417 L28.471,11.326 L21.065,11.326 C15.744,11.326 12.288,15.028 12.288,20.166 C12.288,25.2662679 15.6216735,29.0344168 20.7817396,29.1673672 L21.065,29.171 L28.471,29.171 C31.5991333,29.171 34.0105478,27.8291378 34.8615646,26.5419094 L34.944,26.409 L24.851,26.409 L24.851,17.569 L49.371,17.624 L49.371,20 C49.371,30.9905155 40.9356517,39.8163631 28.8488944,39.9971712 L28.47,40 L21.065,40 C9.051,40 0,31.989 0,20 C0,8.18777551 8.59879144,0.165014994 20.6889694,0.00251511488 L21.064,0 L28.47,0 Z M236.133,0.663 L236.133,14.199 L257.205,14.199 L257.205,0.663 L269.247,0.663 L269.247,39.337 L257.205,39.337 L257.205,24.972 L236.133,24.972 L236.133,39.337 L224.09,39.337 L224.09,0.663 L236.133,0.663 Z M286.762,27.901 L286.762,39.337 L274.72,39.337 L274.72,27.901 L286.762,27.901 Z M330.713,0.663 L330.713,11.16 L304.277,11.16 L304.277,16.464 L326.991,16.464 L326.991,26.961 L304.277,26.961 L304.277,39.337 L292.235,39.337 L292.235,0.663 L330.713,0.663 Z M373.296,0.663 L383.422,39.337 L371.216,39.337 L369.629,33.204 L347.735,33.204 L346.148,39.337 L333.997,39.337 L344.123,0.663 L373.296,0.663 Z M398.473,0.663 L412.103,14.917 L425.184,0.663 L436.952,0.663 L436.952,39.337 L425.184,39.337 L425.184,18.564 L412.103,31.989 L398.474,18.287 L398.474,39.337 L386.706,39.337 L386.706,0.663 L398.473,0.663 Z M454.467,0.663 L454.467,39.337 L442.425,39.337 L442.425,0.663 L454.467,0.663 Z M471.982,0.663 L471.982,28.674 L497.269,28.674 L497.269,39.337 L459.94,39.337 L459.94,0.663 L471.982,0.663 Z M498.276,0.663 L508.511,13.37 L518.747,0.663 L533.47,0.663 L514.532,24.365 L514.532,39.337 L502.491,39.337 L502.491,24.254 L483.553,0.663 L498.276,0.663 Z M65.829,0.663 L65.829,28.674 L91.173,28.674 L91.173,39.337 L53.76,39.337 L53.76,0.663 L65.829,0.663 Z M108.727,0.663 L108.727,39.337 L96.658,39.337 L96.658,0.663 L108.727,0.663 Z M159.141,0.663 L159.141,11.326 L142.738,11.326 L142.738,39.337 L130.67,39.337 L130.67,11.326 L114.213,11.326 L114.213,0.663 L159.141,0.663 Z M363.991,11.326 L353.318,11.326 L350.472,22.431 L366.838,22.431 L363.991,11.326 Z" ></path>
</svg>